# xmcd CD database file
#
# Track frame offsets:
#	150
#	26939
#	38134
#	50495
#	64733
#	78399
#	87496
#	109159
#	124004
#	139758
#	155885
#	166028
#	189627
#	206292
#	220028
#	250016
#	266105
#	281887
#
# Disc length: 3964 seconds
#
# Revision: 5
# Processed by: cddbd v1.5.1PL0 Copyright (c) Steve Scherf et al.
# Submitted via: CDex 1.51
#
DISCID=0a0f7a12
DTITLE=Various Artist - Hagen - Recreation
DYEAR=2005
DGENRE=Salsa
TTITLE0=Jonathan Richman - Ice Cream Man
TTITLE1=Benny Spellman - Lipstick Traces
TTITLE2=Jonathan Richman and The Modern Lovers - Chapel of Love
TTITLE3=Bob Dylan - I Want You
TTITLE4=Nicolai Dunger - Way Up High
TTITLE5=Jonathon Richman - I'm A Little Dinosaur
TTITLE6=Richard Sanderson - Dreams are my reality
TTITLE7=The Muppets - Rainbow Connection
TTITLE8=Fink - Herz aus Holz
TTITLE9=Adam Green - Bleeding Heart
TTITLE10=Jonathan Richman - True Love is Not Nice
TTITLE11=One Headlight - Wallflowers
TTITLE12=Keane - Bend And Break
TTITLE13=The Dresden Dolls - Girl Anachronism
TTITLE14=The Modern Lovers - Hospital
TTITLE15=Konstantin Wecker - Mein linker Arm
TTITLE16=DAAU - Waltz Delire
TTITLE17=Peter Licht - Stratosphärenlieder
EXTD=YEAR: 2005
EXTT0=
EXTT1=
EXTT2=
EXTT3=
EXTT4=
EXTT5=
EXTT6=
EXTT7=
EXTT8=
EXTT9=
EXTT10=
EXTT11=
EXTT12=
EXTT13=
EXTT14=
EXTT15=
EXTT16=
EXTT17=
PLAYORDER=
